# xmcd
#
# Track frame offsets: 
#        150
#        13913
#        32707
#        47925
#        61086
#        77488
#        89267
#        102211
#        116496
#        133895
#        147499
#        161120
#        174377
#        186173
#        201339
#        215645
#        231298
#        243677
#        257822
#        269231
#        279475
#        295409
#        312788
#        328417
#        344859
#
# Disc length: 4758 seconds
#
# Revision: 0
# Processed by: cddbd v1.5.2PL0 Copyright (c) Steve Scherf et al.
# Submitted via: ExactAudioCopyFreeDBPlugin 1.0
#
DISCID=98129419
DTITLE=Mireille Mathieu - Greatest Hits [CD1)
DYEAR=2008
DGENRE=Chanson
TTITLE0=Ciao, Bambino, Sorry
TTITLE1=Une Femme Amoureuse
TTITLE2=Pardonne-Moi Ce Caprice D'Enfant
TTITLE3=Celui Que J'aime
TTITLE4=La Premiere Etoile
TTITLE5=Paris en Colere
TTITLE6=Mon Credo
TTITLE7=La Derniere Valse
TTITLE8=La Paloma, Adieu
TTITLE9=Une Histoire D'Amour (Love Story)
TTITLE10=New-York, New-York
TTITLE11=Un Homme, Une Femme 
TTITLE12=Un Monde Avec Toi
TTITLE13=Tous Les Enfants Chantent Avec Moi
TTITLE14=Ma Melodie D'Amour
TTITLE15=Amour Defendu
TTITLE16=Donne Ton Coeur,Donne Ta Vie
TTITLE17=Je Ne Suis Rien Sans Toi
TTITLE18=Viens Dans Ma Rue
TTITLE19=Qu'elle Est Belle
TTITLE20=J'ai Garde L'Accent
TTITLE21=Mille Colombes
TTITLE22=Acropolis Adieu
TTITLE23=Santa Maria De La Mer
TTITLE24=Corsica
EXTD=
EXTT0=
EXTT1=
EXTT2=
EXTT3=
EXTT4=
EXTT5=
EXTT6=
EXTT7=
EXTT8=
EXTT9=
EXTT10=
EXTT11=
EXTT12=
EXTT13=
EXTT14=
EXTT15=
EXTT16=
EXTT17=
EXTT18=
EXTT19=
EXTT20=
EXTT21=
EXTT22=
EXTT23=
EXTT24=
PLAYORDER=
